<?xml version="1.0" encoding="utf-8"?>
<!-- Generator: Adobe Illustrator 21.0.0, SVG Export Plug-In . SVG Version: 6.00 Build 0)  -->
<svg version="1.1" id="Calque_1" xmlns="http://www.w3.org/2000/svg" xmlns:xlink="http://www.w3.org/1999/xlink" x="0px" y="0px"
	 viewBox="0 0 512 512" style="enable-background:new 0 0 512 512;" xml:space="preserve">
<style type="text/css">
	.st0{fill:#606060;}
</style>
<g>
	<path class="st0" d="M513,18.9c0,157.3,0,314.7,0,472c-1.1,2.2-2.2,4.5-3.2,6.7c-3.6,7.7-10.6,11.1-17.8,14.3
		c-157.3,0-314.7,0-472,0c-8.1-3.2-14.5-8.5-19-16c0-160.7,0-321.3,0-482c1-1.4,1.9-2.9,3.1-4.2C8.2,5.1,12.2,0,19.2,0
		C177.1,0,335,0,492.8-0.1c3.7,0,6.6,1.5,9.3,3.7C507.2,7.7,510.4,13.1,513,18.9z M181.2,247.3c-35.8,0-71.7,0-107.5-0.1
		c-4,0-5.5,0.6-3.7,4.9c10.5,25.2,20.9,50.5,31.3,75.8c11,26.7,22.3,53.2,32.7,80.1c11.7,30.2,35.2,47.1,67.5,47.1
		c33.8,0,67.7,0.1,101.5-0.1c6.8,0,13.5-0.5,20.2-2.3c20.1-5.4,34.8-17.2,43.3-36c7-15.4,13.1-31.2,19.5-46.8
		c16.1-39.1,32.1-78.2,48.2-117.3c2.2-5.3,2.3-5.3-3.5-5.3c-29,0-58,0-87,0c-1.4,0-3.3,0.7-4.2-0.8c-1.2-1.8,0.7-3.1,1.5-4.4
		c11.2-17.5,22.6-34.9,33.6-52.5c16.1-25.6,18.5-52.6,6.7-80.5c-16.1-38-60.5-58.4-99.5-46.5c-19.4,5.9-35.1,16.5-46.3,33.4
		c-17.1,26-33.9,52.2-50.9,78.2c-1.8,2.7-0.2,3.8,1.8,5.1c8.1,5.2,16.4,10.3,24.3,15.7c3.1,2.1,4.4,1.8,6.4-1.4
		c15.7-24.7,31.6-49.2,47.4-73.9c12.7-19.8,30.2-26.6,50.3-22.3c32,6.8,46.8,42.7,29.4,70.1c-16,25.3-32.5,50.2-48.6,75.4
		c-2,3.2-4.2,4.4-8.1,4.4C252.2,247.3,216.7,247.4,181.2,247.3z"/>
	<path class="st0" d="M232.7,291.9c1,12.3,0.1,24.6,0.4,36.9c0.1,3.6-2.3,3.7-5.1,3.7c-17.2-0.1-34.3,0-51.5,0c-6,0-12-0.2-18,0.1
		c-3.2,0.1-5.1-1.2-6.1-3.9c-4.9-12.3-9.8-24.6-14.6-36.8C169.4,291.9,201.1,291.9,232.7,291.9z"/>
	<path class="st0" d="M366,292.9c-4.7,12-9.5,23.9-14.3,35.9c-1,2.5-2.6,3.8-5.7,3.8c-23.3-0.1-46.5-0.1-69.8-0.1
		c-1.5,0-3.5,0.8-4.2-1.5c2.3-1.2,1.9-3.3,1.9-5.3c0-9,0-18,0-27c0-6.6,0.1-6.7,6.7-6.7c25.8,0,51.6,0,77.4,0
		C360.8,291.9,363.4,292.2,366,292.9z"/>
	<path class="st0" d="M201.7,370.3c9,0,18,0.1,27-0.1c3.5-0.1,4.7,1.3,4.7,4.7c-0.1,11.8,0,23.7-0.1,35.5c0,2.1,0,4.4-2.8,4.4
		c-10.9,0-21.9,1.1-32.2-4.4c-10.9-5.8-18.2-14.8-23.1-25.8c-1.5-3.3-2.5-6.8-4-10.2c-1.4-3.2-0.2-4.1,2.9-4.1
		C183.3,370.4,192.5,370.3,201.7,370.3z"/>
	<path class="st0" d="M272.3,371.4c1.1-1.4,2.7-1,4.2-1c17.7,0,35.3,0,53,0c3.6,0,5.3,0.2,3.3,4.7c-3.6,8-6.6,16.2-12.3,23.2
		c-8.4,10.3-19,16.1-32.3,16.2c-5.3,0-10.8,1.6-16-1.1c1.9-1.6,1.8-3.8,1.8-6c0-7.7,0-15.3,0-23c0.1-12.9-1.4-11.3,11.6-11.3
		c15.1-0.1,30.2,0,45.3,0c-5-1-10.1-0.9-15.2-1C301.3,371.6,286.8,372.6,272.3,371.4z M291.6,411.5c2.1,0.6,3.8,0.7,5.9-0.1
		C295.4,410.8,293.6,410.7,291.6,411.5z"/>
</g>
</svg>
