<?xml version="1.0" encoding="utf-8"?>
<!-- Generator: Adobe Illustrator 21.0.0, SVG Export Plug-In . SVG Version: 6.00 Build 0)  -->
<svg version="1.1" id="Calque_1" xmlns="http://www.w3.org/2000/svg" xmlns:xlink="http://www.w3.org/1999/xlink" x="0px" y="0px"
	 viewBox="0 0 145.5 150.8" style="enable-background:new 0 0 145.5 150.8;" xml:space="preserve">
<style type="text/css">
	.st0{fill:#0DBC77;}
	.st1{fill:none;stroke:#0DBC77;stroke-width:14;stroke-miterlimit:10;}
</style>
<g>
	<g id="Image">
		<path class="st0" d="M127.3,71.4L127.3,71.4l-39.7,0.1c-0.3,0.1-0.5,0.1-0.8,0.1H0c0.2,0.5,0.3,0.9,0.5,1.2
			c1.1,2.6,2.2,5.1,3.3,7.7c1.3,3.2,2.7,6.3,4,9.5c2,4.9,4.1,9.7,6.2,14.6c1.2,2.9,2.5,5.9,3.7,8.8c2.5,6,5.2,12,7.7,18.1
			c1.5,3.8,3.2,7.6,6.1,10.6c5.4,5.7,12,8.5,19.8,8.5h41.6c1.6,0,3.3-0.1,4.9-0.3c5.7-0.8,10.6-3.3,14.8-7.2
			c3.6-3.4,5.5-7.9,7.4-12.3c2.5-5.9,5-11.8,7.5-17.7c2.4-5.6,4.9-11.3,7.3-17c2.6-6.2,5.3-12.4,7.9-18.6c0.8-2,1.7-3.9,2.6-6.1
			C145.3,71.4,127.3,71.4,127.3,71.4z M64.9,133.9c0,0.9-0.3,1.1-1.1,1.1c-3.1-0.1-6.2,0.4-9.3-0.4c-4.1-1.1-7.2-3.5-9.7-6.8
			c-1.8-2.5-2.9-5.4-4.1-8.2c-0.3-0.8-0.1-1,0.7-1h11.3c3.7,0,7.4,0,11-0.1c0.9,0,1.2,0.2,1.2,1.2V133.9z M65.1,102.6
			c0,0.9-0.3,1.1-1.2,1.1H35.2c-0.8,0-1.2-0.3-1.5-1c-1.9-4.6-3.8-9.2-5.8-13.7c-0.4-0.9-0.2-1.1,0.8-1.1h17.6
			c5.8,0,11.6,0,17.5,0.1c0.9,0,1.3,0.1,1.3,1.2C65,93.6,65.1,98.1,65.1,102.6z M92.6,133.8c-1.6,0.7-3.3,1.1-5,1.1h-6.4
			c-0.6,0-0.9,0-0.9-0.8v-14.7c0-0.5,0.1-0.8,0.7-0.8h23.3c0.1,0,0.2,0,0.3,0.1C102.4,125.2,99.4,131,92.6,133.8z M117.3,89.1
			c-2,4.4-3.8,8.9-5.7,13.4c-0.3,0.8-0.7,1.2-1.7,1.2H81.7c-1,0-1.3-0.2-1.3-1.3c0.1-4.4,0.1-8.9,0-13.3c0-1,0.3-1.2,1.2-1.2h34.9
			C117.5,87.9,117.8,88.1,117.3,89.1z"/>
	</g>
	<g>
		<path class="st1" d="M31,71.6c0-27.7,19.5-50.1,40.3-50.1"/>
		<path class="st1" d="M111.9,71.6c0-27.7-20.1-50.1-40.7-50.1"/>
	</g>
</g>
</svg>
