<?xml version="1.0" encoding="utf-8"?>
<svg version="1.1" id="Calque_1" xmlns="http://www.w3.org/2000/svg" xmlns:xlink="http://www.w3.org/1999/xlink" x="0px" y="0px"
	 viewBox="0 0 145.5 150.8" style="enable-background:new 0 0 145.5 150.8;" xml:space="preserve">
<style type="text/css">
	.st0{fill:#FA0C00;}
</style>
<g id="Image">
	<path class="st0" d="M0,71.6c0.7,0,1.2,0,1.6,0c28.4,0,56.8,0,85.2,0c1.1,0,1.8-0.4,2.4-1.3c3.6-5.4,7.2-10.9,10.8-16.3
		c2.8-4.2,5.8-8.4,8.5-12.7c3.6-5.5,3.9-11.3,0.9-17.2c-4.5-8.9-16.3-12.5-25.6-7c-3,1.8-5.1,4.5-7,7.4c-3.6,5.5-7.3,10.9-11,16.4
		c-2.5,3.7-4.9,7.4-7.4,11.2c-0.4,0.6-0.6,0.8-1.3,0.4c-3.8-2.4-7.6-4.8-11.4-7.1C45,45,45,44.7,45.4,44.1c2.1-3.1,4.2-6.3,6.3-9.4
		c3-4.5,6-9.1,9.1-13.6c2.5-3.7,4.7-7.6,7.8-10.8c4.7-4.8,10.3-8,16.9-9.5c5.9-1.4,11.8-1.2,17.5,0.6c6.3,1.9,11.7,5.3,15.9,10.4
		c6.7,8.1,8.8,17.4,6.6,27.6c-0.8,3.9-2.6,7.4-4.8,10.7c-3.3,4.9-6.5,9.8-9.8,14.7c-1.4,2.2-2.9,4.3-4.5,6.6c13,0,25.8,0,38.9,0
		c-0.9,2.2-1.8,4.1-2.6,6.1c-2.6,6.2-5.3,12.4-7.9,18.6c-2.4,5.7-4.9,11.4-7.3,17c-2.5,5.9-5,11.8-7.5,17.7
		c-1.9,4.4-3.8,8.9-7.4,12.3c-4.2,3.9-9.1,6.4-14.8,7.2c-1.6,0.2-3.3,0.3-4.9,0.3c-13.9,0-27.8,0-41.6,0c-7.8,0-14.4-2.8-19.8-8.5
		c-2.9-3-4.6-6.8-6.1-10.6c-2.5-6.1-5.2-12.1-7.7-18.1c-1.2-2.9-2.5-5.9-3.7-8.8c-2.1-4.9-4.2-9.7-6.2-14.6c-1.3-3.2-2.7-6.3-4-9.5
		c-1.1-2.6-2.2-5.1-3.3-7.7C0.3,72.5,0.2,72.1,0,71.6z M46.3,87.9c-5.9,0-11.8,0-17.6,0c-1,0-1.2,0.2-0.8,1.1
		c2,4.5,3.9,9.1,5.8,13.7c0.3,0.7,0.7,1,1.5,1c9.6,0,19.1,0,28.7,0c0.9,0,1.2-0.2,1.2-1.1c0-4.5-0.1-9,0-13.4c0-1.1-0.4-1.2-1.3-1.2
		C57.9,87.9,52.1,87.9,46.3,87.9z M99.1,87.9c-5.8,0-11.7,0-17.5,0c-0.9,0-1.2,0.2-1.2,1.2c0.1,4.4,0.1,8.9,0,13.3
		c0,1.1,0.3,1.3,1.3,1.3c9.4,0,18.8,0,28.2,0c1,0,1.4-0.4,1.7-1.2c1.9-4.5,3.7-9,5.7-13.4c0.5-1,0.2-1.2-0.8-1.2
		C110.7,87.9,104.9,87.9,99.1,87.9z M52.7,118.6c-3.8,0-7.5,0-11.3,0c-0.8,0-1,0.2-0.7,1c1.2,2.8,2.3,5.7,4.1,8.2
		c2.5,3.3,5.6,5.7,9.7,6.8c3.1,0.8,6.2,0.3,9.3,0.4c0.8,0,1.1-0.2,1.1-1.1c0-4.7,0-9.4,0-14.2c0-1-0.3-1.2-1.2-1.2
		C60.1,118.6,56.4,118.6,52.7,118.6z M104.6,118.7c-0.1-0.1-0.2-0.1-0.3-0.1c-7.8,0-15.5,0-23.3,0c-0.6,0-0.7,0.3-0.7,0.8
		c0,4.9,0,9.8,0,14.7c0,0.8,0.3,0.8,0.9,0.8c2.1,0,4.2,0,6.4,0c1.7,0,3.4-0.4,5-1.1C99.4,131,102.4,125.2,104.6,118.7z"/>
</g>
</svg>
